# xmcd CD database file
#
# Track frame offsets:
#	150
#	12586
#	22845
#	34576
#	53280
#	65156
#	78821
#	93842
#	107889
#	120644
#	137145
#	148202
#	160882
#	175726
#	189665
#	200097
#	213260
#
# Disc length: 3012 seconds
#
# Revision: 0
# Processed by: cddbd v1.5.2PL0 Copyright (c) Steve Scherf et al.
# Submitted via: CDex 1.51
#
DISCID=e70bc211
DTITLE=Django Reinhardt - Kind Of Reinhardt [CD2] - Parisienne Vol.2
DYEAR=2009
DGENRE=Jazz
TTITLE0=Echoes Of France (De L'Isle)
TTITLE1=Eveline (Grappelli)
TTITLE2=Paramount Stomp (Romans/Grappelli/Reinhardt)
TTITLE3=Festival Swing (Combelle)
TTITLE4=Festival 48 (Reinhardt)
TTITLE5=Blues Clair (Reinhardt)
TTITLE6=Diminushing (Reisner/Reinhardt)
TTITLE7=Swing 41 (Combelle)
TTITLE8=Swing 42 (Reinhardt)
TTITLE9=Festival Swing 1942 (Pt 2) (Reinhardt)
TTITLE10=Naguine (Reinhardt)
TTITLE11=Mike (Grappelli/Reinhardt)
TTITLE12=Mabel (Theard)
TTITLE13=You Rascal You (Grappelli/Reinhardt)
TTITLE14=Douce Ambiance (Freed/Brown)
TTITLE15=Yours And Mine (Kern/Fields/Harbach)
TTITLE16=I Won't Dance (Unknown)
EXTD=YEAR: 2009
EXTT0=
EXTT1=
EXTT2=
EXTT3=
EXTT4=
EXTT5=
EXTT6=
EXTT7=
EXTT8=
EXTT9=
EXTT10=
EXTT11=
EXTT12=
EXTT13=
EXTT14=
EXTT15=
EXTT16=
PLAYORDER=
